<svg width="158" height="31" viewBox="0 0 158 31" fill="none" xmlns="http://www.w3.org/2000/svg">
<path d="M10.1855 30.2095H4.2758V15.4774H0.25V10.6809H4.27564V7.26788C4.27564 3.22342 6.05619 0.322754 11.9499 0.322754C13.1964 0.322754 15.1534 0.574004 15.1534 0.574004V5.0278H13.0979C11.0035 5.0278 10.1858 5.66487 10.1858 7.42613V10.6809H15.075L14.6396 15.4774H10.1857L10.1855 30.2095ZM23.7455 10.2976C23.6594 10.2976 23.5707 10.3008 23.4831 10.3029C18.0033 10.3029 15.4961 14.4249 15.4961 20.2761C15.4961 27.647 18.7482 30.5971 23.5259 30.5971C26.2594 30.5971 28.0553 29.4465 29.1469 27.2995V30.2116H34.7678V10.683H29.1469V13.6862C28.2556 11.754 26.4095 10.3205 23.7455 10.2976ZM25.1747 14.9122C27.4762 14.9122 28.8576 16.5175 28.8576 19.2482L28.863 22.0372C28.863 23.8776 27.722 26.0308 25.1747 26.0308C21.2585 26.0308 21.3631 21.8022 21.3631 20.3939C21.3631 15.6564 23.4497 14.9122 25.1747 14.9122ZM37.0378 20.4483C37.0378 18.0752 36.9243 10.3103 47.0408 10.3103C51.1017 10.3103 52.7974 11.6015 52.7974 11.6015L51.4345 15.8287C51.4345 15.8287 49.741 14.8962 47.5343 14.8962C44.708 14.8962 42.9046 16.5346 42.9046 19.4174L42.9077 21.4845C42.9077 24.2545 44.6478 26.1036 47.5402 26.1036C49.5505 26.1036 51.4033 25.1623 51.4033 25.1623L52.7628 29.3012C52.7628 29.3012 51.2123 30.6005 47.0692 30.6005C37.4367 30.6005 37.038 23.6339 37.038 20.4483H37.0378ZM85.7552 10.3029C91.2352 10.3029 93.7819 14.4249 93.7819 20.2761C93.7819 27.647 90.5296 30.5971 85.7519 30.5971C83.0184 30.5971 80.9978 29.4467 79.9062 27.2995V30.2116L74.356 30.2094V0.916531L80.2489 0.402583V13.4216C81.0994 11.1439 83.8945 10.3029 85.7554 10.3029H85.7552ZM84.1031 14.9122C81.8015 14.9122 80.2489 16.5175 80.2489 19.2482L80.2434 22.0372C80.2399 23.8776 81.3186 26.0308 84.1031 26.0308C88.0193 26.0308 87.9147 21.8022 87.9147 20.3939C87.9147 15.6564 85.8283 14.9122 84.1031 14.9122ZM63.0221 10.3191C56.8067 10.3191 53.5254 13.7078 53.5254 19.73V20.8488C53.5254 28.665 58.1334 30.6774 63.627 30.6774C68.9668 30.6774 71.3838 29.1838 71.3838 29.1838L70.2811 25.2065C70.2811 25.2065 67.438 26.4162 64.3336 26.4162C61.1153 26.4162 59.7312 25.5959 59.3765 22.5031H71.8549V19.3123C71.8549 12.7798 68.1723 10.3189 63.022 10.3189L63.0221 10.3191ZM63.1719 14.3018C65.3234 14.3018 66.7175 15.6211 66.6409 18.6808H59.3873C59.5131 15.4605 61.0165 14.3019 63.1719 14.3019V14.3018ZM105.532 10.2923C99.1494 10.2923 95.7892 13.8891 95.7892 20.3349C95.7892 29.1788 101.581 30.6024 105.543 30.6024C111.342 30.6024 115.2 27.4803 115.2 20.4152C115.2 13.0617 110.862 10.2923 105.532 10.2923ZM105.452 14.9282C108.258 14.9282 109.37 17.0287 109.37 19.4196V21.4752C109.37 24.3717 107.814 26.047 105.441 26.047C103.222 26.047 101.662 24.4799 101.662 21.4752V19.4196C101.662 16.2152 103.518 14.9282 105.452 14.9282ZM126.94 10.2923C120.557 10.2923 117.197 13.8891 117.197 20.3349C117.197 29.1788 122.989 30.6024 126.95 30.6024C132.749 30.6024 136.608 27.4803 136.608 20.4152C136.608 13.0617 132.269 10.2923 126.94 10.2923ZM126.859 14.9282C129.666 14.9282 130.778 17.0287 130.778 19.4196V21.4752C130.778 24.3717 129.222 26.047 126.849 26.047C124.629 26.047 123.069 24.4799 123.069 21.4752V19.4196C123.069 16.2152 124.926 14.9282 126.859 14.9282ZM138.835 30.2095V0.916531L144.745 0.402583V20.0366L150.608 10.6809H156.849L150.733 20.3707L157.085 30.2095H150.826L144.745 20.6561V30.2095H138.835Z" fill="#2D88FF"/>
</svg>
