<svg width="170" height="58" viewBox="0 0 170 58" fill="none" xmlns="http://www.w3.org/2000/svg">
<rect x="1.2107" y="1.48255" width="167.927" height="55.0348" rx="9.17247" fill="black"/>
<path d="M115.55 27.8724V31.1053H113.524V33.2255H115.55V40.4294C115.55 42.8893 116.663 43.8732 119.462 43.8732C119.954 43.8732 120.423 43.8147 120.833 43.7444V41.6476C120.482 41.6828 120.259 41.7062 119.872 41.7062C118.619 41.7062 118.069 41.1205 118.069 39.7852V33.2255H120.833V31.1053H118.069V27.8724H115.55Z" fill="white"/>
<path d="M127.965 44.0489C131.69 44.0489 133.974 41.5539 133.974 37.419C133.974 33.3075 131.678 30.8008 127.965 30.8008C124.24 30.8008 121.944 33.3075 121.944 37.419C121.944 41.5539 124.228 44.0489 127.965 44.0489ZM127.965 41.8116C125.774 41.8116 124.544 40.2069 124.544 37.419C124.544 34.6546 125.774 33.0381 127.965 33.0381C130.143 33.0381 131.385 34.6546 131.385 37.419C131.385 40.1951 130.143 41.8116 127.965 41.8116Z" fill="white"/>
<path d="M135.928 43.8029H138.447V36.2711C138.447 34.4789 139.794 33.2724 141.703 33.2724C142.148 33.2724 142.898 33.3544 143.109 33.4247V30.9414C142.839 30.8711 142.359 30.8359 141.984 30.8359C140.321 30.8359 138.903 31.7496 138.54 33.003H138.353V31.0468H135.928V43.8029Z" fill="white"/>
<path d="M149.362 32.9444C151.224 32.9444 152.442 34.2446 152.501 36.2476H146.059C146.199 34.2563 147.499 32.9444 149.362 32.9444ZM152.489 40.3591C152.021 41.3548 150.978 41.9053 149.456 41.9053C147.441 41.9053 146.141 40.488 146.059 38.2507V38.1101H155.066V37.2316C155.066 33.2255 152.923 30.8008 149.374 30.8008C145.777 30.8008 143.493 33.3895 143.493 37.4659C143.493 41.5422 145.731 44.0489 149.385 44.0489C152.302 44.0489 154.34 42.6433 154.914 40.3591H152.489Z" fill="white"/>
<path d="M99.0346 39.0923C99.2289 42.2246 101.839 44.2279 105.724 44.2279C109.876 44.2279 112.475 42.1275 112.475 38.7766C112.475 36.1421 110.993 34.6852 107.4 33.8474L105.469 33.374C103.187 32.8398 102.264 32.1234 102.264 30.8729C102.264 29.2946 103.697 28.2627 105.846 28.2627C107.885 28.2627 109.294 29.2703 109.549 30.8851H112.195C112.037 27.9348 109.439 25.8588 105.882 25.8588C102.058 25.8588 99.5081 27.9348 99.5081 31.055C99.5081 33.6289 100.953 35.1587 104.122 35.8992L106.38 36.4456C108.699 36.9919 109.719 37.7932 109.719 39.1287C109.719 40.6827 108.116 41.8118 105.931 41.8118C103.587 41.8118 101.961 40.7556 101.73 39.0923H99.0346Z" fill="white"/>
<path d="M72.9462 30.8359C71.2126 30.8359 69.7133 31.7027 68.9401 33.1552H68.7527V31.0468H66.328V48.0433H68.8464V41.8702H69.0456C69.7133 43.2173 71.154 44.0138 72.9696 44.0138C76.1909 44.0138 78.2408 41.4719 78.2408 37.419C78.2408 33.3661 76.1909 30.8359 72.9462 30.8359ZM72.2317 41.7531C70.1232 41.7531 68.7996 40.0897 68.7996 37.4307C68.7996 34.76 70.1232 33.0967 72.2434 33.0967C74.3753 33.0967 75.6521 34.7249 75.6521 37.419C75.6521 40.1249 74.3753 41.7531 72.2317 41.7531Z" fill="white"/>
<path d="M87.0532 30.8359C85.3196 30.8359 83.8202 31.7027 83.0471 33.1552H82.8597V31.0468H80.435V48.0433H82.9534V41.8702H83.1525C83.8202 43.2173 85.261 44.0138 87.0766 44.0138C90.2979 44.0138 92.3478 41.4719 92.3478 37.419C92.3478 33.3661 90.2979 30.8359 87.0532 30.8359ZM86.3387 41.7531C84.2302 41.7531 82.9066 40.0897 82.9066 37.4307C82.9066 34.76 84.2302 33.0967 86.3504 33.0967C88.4823 33.0967 89.759 34.7249 89.759 37.419C89.759 40.1249 88.4823 41.7531 86.3387 41.7531Z" fill="white"/>
<path d="M61.8095 43.8029H64.699L58.3736 26.2837H55.4477L49.1223 43.8029H51.9147L53.5294 39.153H60.2069L61.8095 43.8029ZM56.7711 29.4646H56.9774L59.5149 36.8705H54.2215L56.7711 29.4646Z" fill="white"/>
<path d="M50.814 13.0694V21.5208H53.8654C56.3838 21.5208 57.8422 19.9687 57.8422 17.2687C57.8422 14.6097 56.3721 13.0694 53.8654 13.0694H50.814ZM52.1259 14.2642H53.7189C55.4701 14.2642 56.5068 15.377 56.5068 17.2863C56.5068 19.2249 55.4877 20.326 53.7189 20.326H52.1259V14.2642Z" fill="white"/>
<path d="M62.3086 21.6438C64.171 21.6438 65.3131 20.3963 65.3131 18.3288C65.3131 16.2731 64.1652 15.0197 62.3086 15.0197C60.4461 15.0197 59.2982 16.2731 59.2982 18.3288C59.2982 20.3963 60.4402 21.6438 62.3086 21.6438ZM62.3086 20.5251C61.2133 20.5251 60.5984 19.7228 60.5984 18.3288C60.5984 16.9466 61.2133 16.1384 62.3086 16.1384C63.3979 16.1384 64.0188 16.9466 64.0188 18.3288C64.0188 19.7169 63.3979 20.5251 62.3086 20.5251Z" fill="white"/>
<path d="M75.039 15.1427H73.7797L72.6435 20.0097H72.5439L71.232 15.1427H70.0255L68.7136 20.0097H68.6199L67.4778 15.1427H66.201L67.9581 21.5208H69.2524L70.5643 16.8236H70.6639L71.9817 21.5208H73.2878L75.039 15.1427Z" fill="white"/>
<path d="M76.4891 21.5208H77.7483V17.79C77.7483 16.7943 78.3399 16.1735 79.2711 16.1735C80.2023 16.1735 80.6474 16.6831 80.6474 17.708V21.5208H81.9067V17.3917C81.9067 15.8748 81.1219 15.0197 79.6986 15.0197C78.7381 15.0197 78.1056 15.4473 77.7952 16.1559H77.7015V15.1427H76.4891V21.5208Z" fill="white"/>
<path d="M83.8898 21.5208H85.149V12.6536H83.8898V21.5208Z" fill="white"/>
<path d="M89.8848 21.6438C91.7473 21.6438 92.8894 20.3963 92.8894 18.3288C92.8894 16.2731 91.7414 15.0197 89.8848 15.0197C88.0224 15.0197 86.8744 16.2731 86.8744 18.3288C86.8744 20.3963 88.0165 21.6438 89.8848 21.6438ZM89.8848 20.5251C88.7896 20.5251 88.1746 19.7228 88.1746 18.3288C88.1746 16.9466 88.7896 16.1384 89.8848 16.1384C90.9742 16.1384 91.595 16.9466 91.595 18.3288C91.595 19.7169 90.9742 20.5251 89.8848 20.5251Z" fill="white"/>
<path d="M96.6413 20.5661C95.956 20.5661 95.4582 20.2323 95.4582 19.6583C95.4582 19.0961 95.8564 18.7974 96.735 18.7388L98.2929 18.6392V19.1722C98.2929 19.9629 97.5901 20.5661 96.6413 20.5661ZM96.3191 21.6262C97.1567 21.6262 97.8536 21.2631 98.2343 20.6247H98.3339V21.5208H99.5462V17.1633C99.5462 15.8162 98.6443 15.0197 97.0454 15.0197C95.5987 15.0197 94.5679 15.7225 94.4391 16.8178H95.6573C95.7979 16.3668 96.284 16.1091 96.9868 16.1091C97.8478 16.1091 98.2929 16.4898 98.2929 17.1633V17.7139L96.5651 17.8134C95.0482 17.9071 94.1931 18.569 94.1931 19.7169C94.1931 20.8824 95.0892 21.6262 96.3191 21.6262Z" fill="white"/>
<path d="M103.819 21.6262C104.698 21.6262 105.442 21.2104 105.822 20.5134H105.922V21.5208H107.128V12.6536H105.869V16.1559H105.776C105.43 15.4531 104.692 15.0373 103.819 15.0373C102.209 15.0373 101.172 16.3141 101.172 18.3288C101.172 20.3494 102.197 21.6262 103.819 21.6262ZM104.177 16.1677C105.231 16.1677 105.893 17.0052 105.893 18.3347C105.893 19.67 105.237 20.4959 104.177 20.4959C103.111 20.4959 102.472 19.6818 102.472 18.3288C102.472 16.9876 103.117 16.1677 104.177 16.1677Z" fill="white"/>
<path d="M115.294 21.6438C117.157 21.6438 118.299 20.3963 118.299 18.3288C118.299 16.2731 117.151 15.0197 115.294 15.0197C113.432 15.0197 112.284 16.2731 112.284 18.3288C112.284 20.3963 113.426 21.6438 115.294 21.6438ZM115.294 20.5251C114.199 20.5251 113.584 19.7228 113.584 18.3288C113.584 16.9466 114.199 16.1384 115.294 16.1384C116.383 16.1384 117.004 16.9466 117.004 18.3288C117.004 19.7169 116.383 20.5251 115.294 20.5251Z" fill="white"/>
<path d="M119.965 21.5208H121.225V17.79C121.225 16.7943 121.816 16.1735 122.747 16.1735C123.679 16.1735 124.124 16.6831 124.124 17.708V21.5208H125.383V17.3917C125.383 15.8748 124.598 15.0197 123.175 15.0197C122.214 15.0197 121.582 15.4473 121.272 16.1559H121.178V15.1427H119.965V21.5208Z" fill="white"/>
<path d="M131.182 13.5555V15.172H130.169V16.2321H131.182V19.834C131.182 21.064 131.739 21.5559 133.139 21.5559C133.385 21.5559 133.619 21.5267 133.824 21.4915V20.4431C133.648 20.4607 133.537 20.4724 133.344 20.4724C132.717 20.4724 132.442 20.1796 132.442 19.5119V16.2321H133.824V15.172H132.442V13.5555H131.182Z" fill="white"/>
<path d="M135.514 21.5208H136.773V17.7959C136.773 16.8295 137.347 16.1794 138.378 16.1794C139.268 16.1794 139.743 16.6948 139.743 17.7139V21.5208H141.002V17.4034C141.002 15.8865 140.164 15.0256 138.806 15.0256C137.845 15.0256 137.172 15.4531 136.861 16.1677H136.762V12.6536H135.514V21.5208Z" fill="white"/>
<path d="M145.545 16.0915C146.476 16.0915 147.085 16.7416 147.114 17.7431H143.893C143.963 16.7475 144.613 16.0915 145.545 16.0915ZM147.108 19.7989C146.874 20.2967 146.353 20.572 145.591 20.572C144.584 20.572 143.934 19.8633 143.893 18.7447V18.6744H148.397V18.2351C148.397 16.2321 147.325 15.0197 145.55 15.0197C143.752 15.0197 142.61 16.3141 142.61 18.3523C142.61 20.3904 143.729 21.6438 145.556 21.6438C147.015 21.6438 148.034 20.941 148.321 19.7989H147.108Z" fill="white"/>
<path d="M35.4579 29.4244C35.4884 27.0523 36.7624 24.8077 38.7833 23.5653C37.5084 21.7444 35.3729 20.59 33.1512 20.5205C30.7816 20.2717 28.4843 21.9384 27.2767 21.9384C26.0458 21.9384 24.1867 20.5452 22.1846 20.5863C19.575 20.6707 17.1423 22.1543 15.8726 24.4358C13.1435 29.1609 15.1792 36.1052 17.7935 39.9247C19.1015 41.7949 20.6302 43.8841 22.6304 43.81C24.5878 43.7288 25.3188 42.5619 27.6815 42.5619C30.0222 42.5619 30.7081 43.81 32.7489 43.7629C34.8492 43.7288 36.1726 41.8843 37.4347 39.9963C38.3744 38.6637 39.0976 37.1908 39.5774 35.6323C37.1091 34.5884 35.4608 32.1044 35.4579 29.4244Z" fill="white"/>
<path d="M31.6031 18.0086C32.7483 16.6339 33.3125 14.8668 33.1759 13.0828C31.4263 13.2666 29.8101 14.1028 28.6495 15.4248C27.5145 16.7165 26.9239 18.4524 27.0355 20.1682C28.7857 20.1862 30.5064 19.3727 31.6031 18.0086Z" fill="white"/>
<rect x="1.2107" y="1.48255" width="167.927" height="55.0348" rx="9.17247" stroke="#A6A6A6" stroke-width="1.41115"/>
</svg>
