<svg width="49" height="48" viewBox="0 0 49 48" fill="none" xmlns="http://www.w3.org/2000/svg">
<g clip-path="url(#clip0_1_437)">
<path d="M23.0057 24.4336L24.5586 22.8805C24.589 22.8501 24.6132 22.8139 24.6297 22.7741C24.6462 22.7343 24.6547 22.6916 24.6547 22.6486C24.6547 22.6055 24.6462 22.5628 24.6297 22.523C24.6132 22.4832 24.589 22.4471 24.5586 22.4166L23.7313 21.5894C23.9013 21.2778 24.0377 20.9489 24.138 20.6084H25.3072C25.3943 20.6084 25.4777 20.5738 25.5393 20.5123C25.6008 20.4507 25.6354 20.3673 25.6354 20.2803V18.0843C25.6354 17.9972 25.6008 17.9138 25.5393 17.8522C25.4777 17.7907 25.3943 17.7561 25.3072 17.7561H24.1406C24.0402 17.4151 23.9034 17.0859 23.7326 16.7742L24.5586 15.9481C24.589 15.9176 24.6132 15.8814 24.6297 15.8416C24.6463 15.8018 24.6547 15.7591 24.6548 15.716C24.6547 15.6729 24.6463 15.6303 24.6297 15.5904C24.6132 15.5506 24.589 15.5145 24.5586 15.484L23.0057 13.9309C22.9752 13.9004 22.9391 13.8763 22.8993 13.8598C22.8595 13.8433 22.8168 13.8348 22.7737 13.8348C22.7307 13.8348 22.688 13.8433 22.6482 13.8598C22.6084 13.8763 22.5722 13.9004 22.5418 13.9309L21.7157 14.7573C21.4039 14.5864 21.0747 14.4496 20.7337 14.3493V13.1823C20.7338 13.1392 20.7253 13.0965 20.7088 13.0567C20.6923 13.0168 20.6682 12.9807 20.6377 12.9502C20.6072 12.9197 20.571 12.8955 20.5312 12.8791C20.4914 12.8626 20.4487 12.8541 20.4056 12.8541H18.2094C18.1663 12.8541 18.1237 12.8626 18.0838 12.8791C18.044 12.8955 18.0078 12.9197 17.9774 12.9502C17.9469 12.9807 17.9227 13.0168 17.9062 13.0567C17.8898 13.0965 17.8813 13.1392 17.8813 13.1823V14.3513C17.5409 14.4517 17.2121 14.5881 16.9005 14.7582L16.0734 13.9309C16.043 13.9004 16.0068 13.8763 15.967 13.8597C15.9272 13.8432 15.8845 13.8347 15.8414 13.8347C15.7983 13.8347 15.7556 13.8432 15.7158 13.8597C15.676 13.8763 15.6398 13.9004 15.6094 13.9309L14.0563 15.484C14.0258 15.5145 14.0016 15.5506 13.9851 15.5904C13.9686 15.6303 13.9601 15.6729 13.9601 15.716C13.9601 15.7591 13.9686 15.8018 13.9851 15.8416C14.0016 15.8814 14.0258 15.9176 14.0563 15.9481L14.8832 16.7751C14.7131 17.0868 14.5767 17.4156 14.4763 17.7561H13.3076C13.2645 17.7561 13.2218 17.7646 13.182 17.7811C13.1422 17.7975 13.106 17.8217 13.0755 17.8522C13.0451 17.8827 13.0209 17.9188 13.0044 17.9587C12.9879 17.9985 12.9795 18.0412 12.9795 18.0843V20.2803C12.9795 20.3233 12.9879 20.366 13.0044 20.4058C13.0209 20.4457 13.0451 20.4819 13.0755 20.5123C13.106 20.5428 13.1422 20.567 13.182 20.5834C13.2218 20.5999 13.2645 20.6084 13.3076 20.6084H14.4744C14.5749 20.9494 14.7117 21.2786 14.8826 21.5903L14.0563 22.4166C14.0258 22.4471 14.0016 22.4832 13.9851 22.523C13.9686 22.5628 13.9601 22.6055 13.9601 22.6486C13.9601 22.6916 13.9686 22.7343 13.9851 22.7741C14.0016 22.8139 14.0258 22.8501 14.0563 22.8805L15.609 24.4336C15.6706 24.495 15.754 24.5295 15.841 24.5295C15.928 24.5295 16.0115 24.495 16.0731 24.4336L16.8992 23.6073C17.211 23.7781 17.5403 23.9149 17.8813 24.0154V25.1824C17.8813 25.2695 17.9159 25.3529 17.9774 25.4145C18.0389 25.476 18.1224 25.5106 18.2094 25.5106H20.4056C20.4926 25.5106 20.5761 25.476 20.6376 25.4145C20.6992 25.3529 20.7337 25.2695 20.7337 25.1824V24.0132C21.0742 23.9128 21.403 23.7764 21.7146 23.6063L22.5418 24.4336C22.6033 24.495 22.6868 24.5296 22.7737 24.5296C22.8607 24.5296 22.9442 24.495 23.0057 24.4336ZM22.0005 22.9641C21.9484 22.9119 21.8802 22.8788 21.8069 22.8702C21.7337 22.8615 21.6596 22.8779 21.5968 22.9165C21.2048 23.1575 20.7769 23.3347 20.3293 23.4415C20.2577 23.4587 20.1939 23.4995 20.1482 23.5573C20.1026 23.6151 20.0776 23.6866 20.0775 23.7603V24.8534H18.5376V23.7633C18.5374 23.6895 18.5125 23.618 18.4668 23.5601C18.421 23.5023 18.3571 23.4616 18.2854 23.4445C17.8378 23.3375 17.4102 23.1595 17.0188 22.9174C16.9559 22.8787 16.8818 22.8622 16.8084 22.8708C16.735 22.8794 16.6666 22.9124 16.6144 22.9647L15.8413 23.7372L14.7527 22.6482L15.5252 21.8755C15.5774 21.8233 15.6104 21.7549 15.619 21.6816C15.6276 21.6082 15.6112 21.5341 15.5724 21.4713C15.3304 21.0796 15.1526 20.6518 15.0457 20.2039C15.0287 20.1322 14.9879 20.0683 14.9301 20.0225C14.8723 19.9768 14.8007 19.9519 14.727 19.9518H13.6357V18.4122H14.7287C14.8024 18.4121 14.8739 18.3872 14.9317 18.3415C14.9895 18.2958 15.0303 18.232 15.0474 18.1604C15.1541 17.7128 15.3313 17.2851 15.5724 16.8933C15.611 16.8303 15.6273 16.7563 15.6186 16.683C15.61 16.6097 15.577 16.5414 15.5248 16.4892L14.7527 15.7159L15.8413 14.6273L16.6146 15.4006C16.6667 15.4527 16.735 15.4858 16.8082 15.4944C16.8815 15.5031 16.9556 15.4868 17.0184 15.4482C17.4104 15.2072 17.8382 15.03 18.2857 14.9232C18.3574 14.906 18.4212 14.8652 18.4668 14.8074C18.5125 14.7496 18.5374 14.6781 18.5376 14.6044V13.5104H20.0775V14.6014C20.0776 14.6752 20.1025 14.7467 20.1483 14.8046C20.194 14.8624 20.2579 14.9031 20.3297 14.9202C20.7775 15.027 21.2053 15.2047 21.597 15.4467C21.6598 15.4856 21.734 15.5021 21.8074 15.4935C21.8807 15.4849 21.9491 15.4518 22.0012 15.3994L22.7737 14.6269L23.8626 15.7159L23.0901 16.4886C23.0379 16.5409 23.0048 16.6093 22.9963 16.6826C22.9877 16.756 23.0041 16.8301 23.0428 16.8931C23.2849 17.2846 23.4626 17.7124 23.5693 18.1602C23.5864 18.2319 23.6271 18.2958 23.6849 18.3416C23.7428 18.3873 23.8143 18.4123 23.8881 18.4124H24.9791V19.9521H23.886C23.8123 19.9523 23.7408 19.9772 23.683 20.0229C23.6252 20.0686 23.5844 20.1325 23.5672 20.2041C23.4605 20.6517 23.2833 21.0795 23.0422 21.4714C23.0036 21.5343 22.9873 21.6083 22.9959 21.6816C23.0046 21.7548 23.0377 21.823 23.0899 21.8751L23.8626 22.6486L22.7737 23.7372L22.0005 22.9641Z" fill="white"/>
<path d="M19.3072 16.3416C18.7454 16.3416 18.1963 16.5082 17.7292 16.8203C17.2621 17.1324 16.898 17.576 16.683 18.0951C16.468 18.6141 16.4118 19.1852 16.5214 19.7362C16.631 20.2872 16.9015 20.7933 17.2987 21.1905C17.696 21.5878 18.2021 21.8583 18.7531 21.9679C19.3041 22.0775 19.8752 22.0213 20.3942 21.8063C20.9132 21.5913 21.3569 21.2272 21.669 20.7601C21.9811 20.293 22.1477 19.7438 22.1477 19.1821C22.1468 18.429 21.8473 17.707 21.3148 17.1745C20.7823 16.642 20.0603 16.3425 19.3072 16.3416ZM19.3072 21.3666C18.8753 21.3666 18.453 21.2385 18.0938 20.9985C17.7346 20.7586 17.4547 20.4175 17.2893 20.0184C17.124 19.6193 17.0807 19.1801 17.165 18.7565C17.2492 18.3328 17.4572 17.9436 17.7626 17.6381C18.0681 17.3326 18.4572 17.1246 18.8809 17.0403C19.3046 16.9559 19.7437 16.9991 20.1428 17.1644C20.5419 17.3297 20.8831 17.6095 21.1231 17.9687C21.3632 18.3278 21.4913 18.7501 21.4914 19.1821C21.4907 19.7611 21.2604 20.3163 20.8509 20.7257C20.4415 21.1352 19.8863 21.3655 19.3072 21.3662V21.3666Z" fill="white"/>
<path d="M34.9434 27.391H33.7764C33.676 27.05 33.5392 26.7207 33.3684 26.409L34.1945 25.5827C34.225 25.5523 34.2492 25.5161 34.2657 25.4763C34.2822 25.4365 34.2907 25.3939 34.2907 25.3508C34.2907 25.3077 34.2822 25.265 34.2657 25.2252C34.2492 25.1854 34.225 25.1493 34.1945 25.1188L32.6416 23.5661C32.6112 23.5356 32.575 23.5115 32.5352 23.495C32.4954 23.4784 32.4527 23.4699 32.4096 23.4699C32.3665 23.4699 32.3238 23.4784 32.284 23.495C32.2442 23.5115 32.208 23.5356 32.1775 23.5661L31.3514 24.3921C31.0397 24.2213 30.7106 24.0844 30.3697 23.9839V22.8169C30.3697 22.7299 30.3351 22.6464 30.2736 22.5849C30.212 22.5233 30.1286 22.4888 30.0415 22.4888H27.8454C27.7583 22.4888 27.6749 22.5233 27.6133 22.5849C27.5518 22.6464 27.5172 22.7299 27.5172 22.8169V23.9861C27.1767 24.0865 26.8479 24.2229 26.5362 24.393L25.7092 23.5661C25.6787 23.5357 25.6426 23.5115 25.6028 23.495C25.563 23.4785 25.5203 23.47 25.4772 23.47C25.4341 23.47 25.3915 23.4785 25.3517 23.495C25.3119 23.5115 25.2757 23.5357 25.2453 23.5661L23.6922 25.1188C23.6307 25.1804 23.5962 25.2638 23.5962 25.3508C23.5962 25.4378 23.6307 25.5212 23.6922 25.5827L24.5197 26.41C24.3496 26.7215 24.2132 27.0504 24.113 27.391H22.9434C22.8563 27.391 22.7729 27.4255 22.7113 27.4871C22.6498 27.5486 22.6152 27.6321 22.6152 27.7191V29.9151C22.6152 30.0021 22.6498 30.0856 22.7113 30.1471C22.7729 30.2086 22.8563 30.2432 22.9434 30.2432H24.1104C24.2107 30.5842 24.3475 30.9134 24.5184 31.2251L23.6922 32.0513C23.6307 32.1128 23.5962 32.1963 23.5962 32.2833C23.5962 32.3703 23.6307 32.4538 23.6922 32.5153L25.2453 34.0684C25.2757 34.0989 25.3119 34.1231 25.3517 34.1396C25.3915 34.1561 25.4341 34.1646 25.4772 34.1646C25.5203 34.1646 25.563 34.1561 25.6028 34.1396C25.6426 34.1231 25.6787 34.0989 25.7092 34.0684L26.5353 33.2434C26.847 33.4143 27.1762 33.551 27.5172 33.6514V34.8184C27.5172 34.8615 27.5257 34.9042 27.5422 34.944C27.5586 34.9838 27.5828 35.02 27.6133 35.0505C27.6438 35.0809 27.6799 35.1051 27.7198 35.1216C27.7596 35.1381 27.8023 35.1465 27.8454 35.1465H30.0414C30.0845 35.1465 30.1271 35.1381 30.167 35.1216C30.2068 35.1051 30.243 35.0809 30.2734 35.0505C30.3039 35.02 30.3281 34.9838 30.3446 34.944C30.361 34.9042 30.3695 34.8615 30.3695 34.8184V33.6493C30.71 33.5489 31.0389 33.4124 31.3505 33.2423L32.1775 34.0693C32.208 34.0998 32.2442 34.124 32.284 34.1405C32.3238 34.157 32.3665 34.1655 32.4096 34.1655C32.4527 34.1655 32.4954 34.157 32.5352 34.1405C32.575 34.124 32.6112 34.0998 32.6416 34.0693L34.1945 32.5166C34.225 32.4862 34.2492 32.45 34.2657 32.4102C34.2822 32.3704 34.2907 32.3277 34.2907 32.2846C34.2907 32.2415 34.2822 32.1988 34.2657 32.159C34.2492 32.1192 34.225 32.083 34.1945 32.0526L33.3674 31.2253C33.5375 30.9138 33.6739 30.585 33.7743 30.2445H34.9434C34.9865 30.2445 35.0291 30.2361 35.069 30.2196C35.1088 30.2031 35.145 30.1789 35.1754 30.1485C35.2059 30.118 35.2301 30.0818 35.2466 30.042C35.263 30.0022 35.2715 29.9595 35.2715 29.9164V27.7191C35.2715 27.676 35.263 27.6333 35.2466 27.5935C35.2301 27.5537 35.2059 27.5175 35.1754 27.487C35.145 27.4565 35.1088 27.4324 35.069 27.4159C35.0291 27.3994 34.9865 27.3909 34.9434 27.391ZM34.6152 29.5871H33.5223C33.4486 29.5873 33.3771 29.6122 33.3193 29.6578C33.2615 29.7035 33.2207 29.7673 33.2035 29.839C33.0968 30.2865 32.9196 30.7143 32.6785 31.1063C32.64 31.1692 32.6237 31.2432 32.6323 31.3165C32.641 31.3897 32.674 31.4579 32.7262 31.5101L33.4996 32.2836L32.4108 33.3722L31.6375 32.599C31.5853 32.5469 31.5171 32.5139 31.4439 32.5052C31.3706 32.4966 31.2966 32.5128 31.2337 32.5513C30.8416 32.7923 30.4138 32.9695 29.9662 33.0763C29.8945 33.0935 29.8307 33.1343 29.7851 33.1921C29.7394 33.2499 29.7145 33.3214 29.7144 33.3951V34.488H28.1735V33.397C28.1734 33.3232 28.1484 33.2517 28.1027 33.1938C28.0569 33.136 27.993 33.0953 27.9213 33.0782C27.4735 32.9714 27.0456 32.7937 26.654 32.5517C26.5911 32.5128 26.517 32.4964 26.4436 32.5049C26.3702 32.5135 26.3019 32.5466 26.2497 32.599L25.4772 33.3715L24.3884 32.2834L25.1609 31.5107C25.2132 31.4585 25.2463 31.3901 25.2549 31.3167C25.2634 31.2433 25.247 31.1692 25.2082 31.1063C24.9663 30.7147 24.7886 30.2869 24.6819 29.8391C24.6648 29.7674 24.6241 29.7035 24.5662 29.6578C24.5084 29.612 24.4368 29.5871 24.3631 29.587H23.2715V28.0472H24.3644C24.4381 28.047 24.5096 28.0221 24.5674 27.9764C24.6252 27.9307 24.666 27.8669 24.6832 27.7952C24.7899 27.3476 24.9671 26.9198 25.2082 26.5279C25.2468 26.4651 25.2631 26.391 25.2545 26.3178C25.2459 26.2445 25.2128 26.1763 25.1605 26.1242L24.3884 25.3508L25.4772 24.2621L26.2505 25.0354C26.3026 25.0877 26.3708 25.1208 26.444 25.1294C26.5173 25.1381 26.5914 25.1217 26.6542 25.083C27.0462 24.842 27.474 24.6648 27.9217 24.558C27.9933 24.5408 28.0571 24.5 28.1028 24.4422C28.1484 24.3844 28.1733 24.3129 28.1735 24.2393V23.1461H29.7134V24.2372C29.7135 24.3109 29.7385 24.3825 29.7842 24.4403C29.83 24.4982 29.8939 24.5389 29.9656 24.556C30.4134 24.6628 30.8411 24.8407 31.2327 25.0826C31.2956 25.1215 31.3698 25.138 31.4432 25.1294C31.5166 25.1209 31.585 25.0877 31.6372 25.0354L32.4097 24.2621L33.4985 25.351L32.7258 26.1236C32.6736 26.1759 32.6405 26.2442 32.6319 26.3176C32.6233 26.3909 32.6398 26.465 32.6785 26.5279C32.9205 26.9195 33.0982 27.3473 33.2049 27.795C33.2219 27.8668 33.2626 27.9307 33.3204 27.9765C33.3783 28.0223 33.4498 28.0473 33.5236 28.0474H34.6147L34.6152 29.5871Z" fill="white"/>
<path d="M28.943 25.9766C28.3812 25.9766 27.832 26.1432 27.3649 26.4553C26.8978 26.7674 26.5337 27.2111 26.3188 27.7301C26.1038 28.2491 26.0475 28.8202 26.1571 29.3712C26.2667 29.9222 26.5372 30.4283 26.9345 30.8256C27.3317 31.2228 27.8378 31.4933 28.3888 31.6029C28.9398 31.7125 29.5109 31.6563 30.03 31.4413C30.549 31.2263 30.9926 30.8622 31.3047 30.3951C31.6168 29.928 31.7834 29.3788 31.7834 28.8171C31.7826 28.064 31.483 27.342 30.9505 26.8095C30.418 26.277 29.696 25.9775 28.943 25.9766ZM28.943 31.0016C28.511 31.0016 28.0887 30.8735 27.7295 30.6335C27.3703 30.3935 27.0904 30.0524 26.9251 29.6533C26.7597 29.2542 26.7165 28.815 26.8008 28.3913C26.885 27.9676 27.0931 27.5784 27.3985 27.273C27.704 26.9675 28.0932 26.7595 28.5169 26.6752C28.9406 26.5909 29.3797 26.6342 29.7788 26.7995C30.1779 26.9648 30.5191 27.2448 30.7591 27.604C30.9991 27.9632 31.1272 28.3854 31.1272 28.8174C31.1264 29.3965 30.8961 29.9515 30.4866 30.3609C30.0771 30.7703 29.522 31.0006 28.943 31.0012V31.0016Z" fill="white"/>
<path d="M26.5079 15.9107C28.4143 16.4719 30.0608 17.6895 31.1558 19.3479C30.8932 19.5856 30.7271 19.9116 30.6893 20.2638C30.6514 20.616 30.7443 20.9699 30.9503 21.258C31.1564 21.5462 31.4612 21.7485 31.8067 21.8265C32.1523 21.9046 32.5144 21.8528 32.8243 21.6812C33.1342 21.5095 33.3701 21.23 33.4873 20.8956C33.6044 20.5613 33.5945 20.1956 33.4595 19.8681C33.3246 19.5406 33.0739 19.2741 32.7552 19.1194C32.4365 18.9647 32.0721 18.9326 31.7313 19.0292C30.5516 17.22 28.7652 15.8911 26.6933 15.2812C26.6517 15.2681 26.6079 15.2634 26.5645 15.2674C26.5211 15.2715 26.4789 15.2841 26.4404 15.3046C26.4019 15.3251 26.3679 15.3531 26.3403 15.3869C26.3128 15.4207 26.2923 15.4597 26.28 15.5015C26.2676 15.5434 26.2638 15.5872 26.2686 15.6306C26.2735 15.6739 26.2869 15.7159 26.3081 15.754C26.3294 15.7921 26.358 15.8255 26.3923 15.8524C26.4267 15.8793 26.466 15.8991 26.5081 15.9107H26.5079ZM32.8996 20.4138C32.8996 20.5686 32.8537 20.7198 32.7677 20.8484C32.6818 20.9771 32.5596 21.0773 32.4167 21.1365C32.2737 21.1958 32.1165 21.2112 31.9647 21.1811C31.813 21.1509 31.6736 21.0764 31.5642 20.967C31.4548 20.8576 31.3803 20.7182 31.3501 20.5665C31.3199 20.4147 31.3354 20.2574 31.3946 20.1145C31.4538 19.9715 31.5541 19.8494 31.6827 19.7634C31.8114 19.6775 31.9626 19.6316 32.1173 19.6316C32.3247 19.6318 32.5236 19.7143 32.6702 19.8609C32.8169 20.0076 32.8994 20.2064 32.8996 20.4138Z" fill="white"/>
<path d="M21.7413 32.0891C19.8352 31.5277 18.1891 30.3101 17.0943 28.6519C17.3569 28.4141 17.523 28.0881 17.5609 27.7359C17.5987 27.3837 17.5058 27.0299 17.2998 26.7417C17.0937 26.4536 16.7889 26.2512 16.4434 26.1732C16.0979 26.0952 15.7357 26.1469 15.4258 26.3186C15.1159 26.4902 14.88 26.7698 14.7629 27.1041C14.6457 27.4384 14.6556 27.8041 14.7906 28.1317C14.9256 28.4592 15.1762 28.7256 15.4949 28.8803C15.8136 29.035 16.178 29.0672 16.5189 28.9706C17.6983 30.7796 19.4843 32.1085 21.5559 32.7185C21.586 32.7275 21.6172 32.7319 21.6487 32.7319C21.7275 32.7317 21.8036 32.7032 21.8631 32.6515C21.9226 32.5998 21.9615 32.5285 21.9727 32.4504C21.984 32.3724 21.9667 32.293 21.9242 32.2267C21.8817 32.1603 21.8167 32.1115 21.7411 32.0891H21.7413ZM15.3496 27.5859C15.3497 27.4312 15.3956 27.28 15.4816 27.1514C15.5676 27.0228 15.6898 26.9226 15.8328 26.8635C15.9757 26.8043 16.133 26.7889 16.2847 26.8191C16.4364 26.8494 16.5758 26.9239 16.6851 27.0333C16.7945 27.1427 16.8689 27.2821 16.8991 27.4338C16.9292 27.5856 16.9137 27.7428 16.8545 27.8857C16.7953 28.0287 16.695 28.1508 16.5664 28.2367C16.4378 28.3227 16.2865 28.3685 16.1319 28.3685C15.9244 28.3684 15.7255 28.2858 15.5788 28.1391C15.4321 27.9923 15.3497 27.7934 15.3496 27.5859Z" fill="white"/>
</g>
<rect x="0.625" y="0.5" width="47" height="47" rx="3.5" stroke="#393939"/>
<defs>
<clipPath id="clip0_1_437">
<rect width="24" height="24" fill="white" transform="translate(12.125 12)"/>
</clipPath>
</defs>
</svg>
