<svg width="46" height="48" viewBox="0 0 46 48" fill="none" xmlns="http://www.w3.org/2000/svg">
<path d="M29.2105 28.1435C28.0606 28.1435 27.0246 28.64 26.3055 29.43L19.8381 25.4244C20.0107 24.9823 20.1065 24.5022 20.1065 24C20.1065 23.4975 20.0107 23.0174 19.8381 22.5756L26.3055 18.5698C27.0246 19.3597 28.0606 19.8565 29.2105 19.8565C31.3766 19.8565 33.1388 18.0943 33.1388 15.9282C33.1388 13.762 31.3766 12 29.2105 12C27.0443 12 25.2821 13.7622 25.2821 15.9283C25.2821 16.4306 25.3781 16.9107 25.5506 17.3527L19.0833 21.3583C18.3642 20.5684 17.3282 20.0716 16.1783 20.0716C14.0122 20.0716 12.25 21.834 12.25 24C12.25 26.1661 14.0122 27.9283 16.1783 27.9283C17.3282 27.9283 18.3642 27.4317 19.0833 26.6416L25.5506 30.6472C25.3781 31.0893 25.2821 31.5694 25.2821 32.0718C25.2821 34.2377 27.0443 36 29.2105 36C31.3766 36 33.1388 34.2377 33.1388 32.0718C33.1388 29.9057 31.3766 28.1435 29.2105 28.1435ZM26.7146 15.9283C26.7146 14.5521 27.8343 13.4324 29.2105 13.4324C30.5867 13.4324 31.7064 14.5521 31.7064 15.9283C31.7064 17.3046 30.5867 18.4242 29.2105 18.4242C27.8343 18.4242 26.7146 17.3046 26.7146 15.9283ZM16.1783 26.4959C14.8019 26.4959 13.6822 25.3762 13.6822 24C13.6822 22.6238 14.8019 21.5041 16.1783 21.5041C17.5546 21.5041 18.6741 22.6238 18.6741 24C18.6741 25.3762 17.5546 26.4959 16.1783 26.4959ZM26.7146 32.0716C26.7146 30.6954 27.8343 29.5757 29.2105 29.5757C30.5867 29.5757 31.7064 30.6954 31.7064 32.0716C31.7064 33.4478 30.5867 34.5675 29.2105 34.5675C27.8343 34.5675 26.7146 33.4478 26.7146 32.0716Z" fill="white"/>
<rect x="0.75" y="0.5" width="43.8888" height="47" rx="3.5" stroke="#393939"/>
</svg>
