<svg width="32" height="32" viewBox="0 0 32 32" fill="none" xmlns="http://www.w3.org/2000/svg">
<path fill-rule="evenodd" clip-rule="evenodd" d="M16 28.7999C23.0692 28.7999 28.7999 23.0692 28.7999 16C28.7999 8.93071 23.0692 3.19995 16 3.19995C8.93071 3.19995 3.19995 8.93071 3.19995 16C3.19995 23.0692 8.93071 28.7999 16 28.7999ZM21.9313 13.9313C22.5562 13.3065 22.5562 12.2934 21.9313 11.6686C21.3065 11.0437 20.2934 11.0437 19.6686 11.6686L14.4 16.9372L12.3313 14.8686C11.7065 14.2437 10.6934 14.2437 10.0686 14.8686C9.44374 15.4934 9.44374 16.5065 10.0686 17.1313L13.2686 20.3313C13.8934 20.9562 14.9065 20.9562 15.5313 20.3313L21.9313 13.9313Z" fill="#007AFF"/>
</svg>
