<svg width="81" height="80" viewBox="0 0 81 80" fill="none" xmlns="http://www.w3.org/2000/svg">
<circle cx="40.5" cy="40" r="40" fill="#007AFF"/>
<g clip-path="url(#clip0_1_390)">
<path d="M40.5592 30.925C38.7248 30.925 36.9315 31.469 35.4063 32.4881C33.881 33.5073 32.6922 34.9558 31.9902 36.6506C31.2882 38.3454 31.1045 40.2103 31.4624 42.0095C31.8203 43.8086 32.7036 45.4613 34.0008 46.7584C35.2979 48.0555 36.9505 48.9389 38.7497 49.2968C40.5489 49.6547 42.4138 49.471 44.1086 48.769C45.8034 48.067 47.2519 46.8782 48.2711 45.3529C49.2902 43.8277 49.8342 42.0344 49.8342 40.2C49.8314 37.741 48.8534 35.3834 47.1146 33.6446C45.3758 31.9058 43.0182 30.9278 40.5592 30.925ZM41.9722 44.8838V48.0168C41.0377 48.1945 40.0781 48.1944 39.1436 48.0164V44.8838C39.1436 44.76 39.109 44.6387 39.0436 44.5336C38.9782 44.4285 38.8846 44.3438 38.7735 44.2892C38.1447 43.9832 37.6051 43.5206 37.2067 42.9459C36.8082 42.3712 36.5642 41.7037 36.4982 41.0074C36.4322 40.3112 36.5464 39.6097 36.8297 38.9704C37.1131 38.331 37.5561 37.7753 38.1162 37.3566V40.8625C38.1162 40.9495 38.1333 41.0357 38.1666 41.1161C38.1999 41.1964 38.2487 41.2695 38.3102 41.331C38.3717 41.3925 38.4448 41.4413 38.5252 41.4746C38.6055 41.5079 38.6917 41.525 38.7787 41.525H42.3364C42.4234 41.525 42.5096 41.5079 42.59 41.4746C42.6704 41.4413 42.7434 41.3925 42.8049 41.331C42.8665 41.2695 42.9153 41.1964 42.9485 41.1161C42.9818 41.0357 42.9989 40.9495 42.9989 40.8625V37.3491C43.561 37.7673 44.0059 38.3234 44.2906 38.9635C44.5752 39.6037 44.6901 40.3065 44.6241 41.004C44.5581 41.7015 44.3135 42.3702 43.9138 42.9457C43.5141 43.5211 42.9728 43.9838 42.3422 44.2892C42.2312 44.3438 42.1376 44.4285 42.0722 44.5336C42.0068 44.6387 41.9722 44.76 41.9722 44.8838ZM43.2972 47.6539V45.2787C44.1681 44.7684 44.8786 44.0243 45.3479 43.1306C45.8173 42.237 46.0268 41.2297 45.9526 40.223C45.8785 39.2163 45.5236 38.2506 44.9283 37.4354C44.333 36.6202 43.5212 35.9881 42.5849 35.611C42.4843 35.5703 42.3753 35.555 42.2674 35.5663C42.1596 35.5776 42.0561 35.6152 41.9662 35.6758C41.8762 35.7365 41.8025 35.8182 41.7516 35.914C41.7006 36.0097 41.674 36.1165 41.6739 36.225V40.2H39.4412V36.2315C39.4412 36.123 39.4145 36.0162 39.3636 35.9205C39.3126 35.8247 39.2389 35.7429 39.149 35.6823C39.059 35.6217 38.9556 35.5841 38.8477 35.5728C38.7398 35.5615 38.6308 35.5768 38.5303 35.6175C37.5957 35.9955 36.7856 36.6276 36.1916 37.4422C35.5977 38.2568 35.2437 39.2214 35.1696 40.2268C35.0955 41.2322 35.3044 42.2382 35.7726 43.1311C36.2407 44.0239 36.9495 44.7679 37.8186 45.2787V47.653C36.0658 47.0093 34.5955 45.7692 33.6655 44.1501C32.7354 42.531 32.405 40.6362 32.732 38.7978C33.059 36.9595 34.0227 35.2949 35.4541 34.0959C36.8855 32.8968 38.6933 32.2399 40.5605 32.2402C42.4277 32.2405 44.2353 32.8981 45.6662 34.0976C47.0972 35.2971 48.0604 36.962 48.3868 38.8005C48.7132 40.639 48.3821 42.5337 47.4515 44.1525C46.5209 45.7713 45.0502 47.0109 43.2972 47.6539V47.6539Z" fill="white"/>
<path d="M52.1243 43.8725C52.1576 43.7444 52.2313 43.6305 52.3346 43.5477C52.4379 43.4649 52.5652 43.4177 52.6975 43.4132H53.558C53.7117 43.4132 53.8606 43.3597 53.9792 43.262C54.0978 43.1643 54.1788 43.0283 54.2082 42.8775C54.5593 41.1098 54.5593 39.2902 54.2082 37.5225C54.1788 37.3716 54.0978 37.2357 53.9792 37.138C53.8606 37.0403 53.7117 36.9868 53.558 36.9868H52.6975C52.5653 36.9823 52.438 36.9351 52.3347 36.8524C52.2314 36.7697 52.1576 36.6558 52.1243 36.5278C51.915 35.871 51.6501 35.2332 51.3324 34.6215C51.2651 34.5072 51.2365 34.3742 51.2511 34.2423C51.2657 34.1105 51.3226 33.9869 51.4133 33.8901L52.0253 33.2784C52.1339 33.1696 52.2014 33.0265 52.2162 32.8735C52.2309 32.7204 52.192 32.5671 52.1062 32.4396C51.1012 30.9438 49.8151 29.6576 48.3195 28.6525C48.1919 28.5669 48.0386 28.5282 47.8857 28.543C47.7328 28.5578 47.5897 28.6252 47.481 28.7337L46.8689 29.3457C46.772 29.4363 46.6484 29.4931 46.5165 29.5077C46.3846 29.5223 46.2516 29.4938 46.1372 29.4266C45.5256 29.1088 44.8879 28.8439 44.2312 28.6347C44.1032 28.6014 43.9893 28.5276 43.9066 28.4243C43.824 28.321 43.7769 28.1937 43.7725 28.0615V27.201C43.7725 27.0473 43.7191 26.8984 43.6214 26.7797C43.5236 26.6611 43.3877 26.5802 43.2368 26.5508C41.4687 26.2014 39.6493 26.2014 37.8811 26.5508C37.7303 26.5802 37.5943 26.6611 37.4966 26.7797C37.3988 26.8984 37.3454 27.0473 37.3454 27.201V28.0615C37.341 28.1937 37.294 28.321 37.2113 28.4243C37.1286 28.5276 37.0148 28.6014 36.8867 28.6347C36.23 28.8439 35.5924 29.1088 34.9807 29.4266C34.8663 29.4938 34.7333 29.5222 34.6014 29.5076C34.4696 29.4931 34.346 29.4363 34.249 29.3457L33.637 28.7337C33.5282 28.6252 33.3852 28.5578 33.2323 28.543C33.0794 28.5282 32.926 28.5669 32.7985 28.6525C31.3028 29.6576 30.0167 30.9438 29.0118 32.4396C28.9259 32.5671 28.887 32.7204 28.9018 32.8735C28.9165 33.0265 28.984 33.1696 29.0926 33.2784L29.7047 33.8897C29.7953 33.9867 29.8522 34.1104 29.8668 34.2423C29.8814 34.3743 29.8529 34.5074 29.7855 34.6218C29.4679 35.2334 29.203 35.8709 28.9936 36.5275C28.9604 36.6556 28.8866 36.7695 28.7833 36.8523C28.68 36.9351 28.5527 36.9823 28.4204 36.9868H27.56C27.4063 36.9868 27.2574 37.0403 27.1388 37.138C27.0202 37.2357 26.9392 37.3717 26.9098 37.5225C26.5587 39.2902 26.5587 41.1098 26.9098 42.8775C26.9392 43.0284 27.0202 43.1643 27.1388 43.262C27.2574 43.3597 27.4063 43.4132 27.56 43.4132H28.4205C28.5527 43.4177 28.68 43.4649 28.7833 43.5476C28.8865 43.6303 28.9604 43.7442 28.9937 43.8722C29.2029 44.5288 29.4678 45.1664 29.7856 45.7779C29.8529 45.8923 29.8815 46.0254 29.8669 46.1574C29.8523 46.2893 29.7954 46.413 29.7047 46.5099L29.0927 47.1217C28.984 47.2304 28.9166 47.3735 28.9018 47.5266C28.8871 47.6796 28.926 47.833 29.0118 47.9605C30.0168 49.4562 31.3029 50.7424 32.7985 51.7475C32.926 51.8335 33.0794 51.8723 33.2324 51.8575C33.3854 51.8427 33.5284 51.7751 33.637 51.6663L34.2491 51.0543C34.3461 50.9639 34.4697 50.9072 34.6015 50.8927C34.7333 50.8781 34.8663 50.9064 34.9808 50.9734C35.5924 51.2912 36.2301 51.5561 36.8868 51.7653C37.0148 51.7986 37.1287 51.8724 37.2114 51.9757C37.294 52.079 37.3411 52.2063 37.3455 52.3385V53.199C37.3455 53.3527 37.399 53.5016 37.4967 53.6202C37.5944 53.7388 37.7303 53.8198 37.8812 53.8492C39.6492 54.2003 41.4689 54.2003 43.2369 53.8492C43.3877 53.8198 43.5236 53.7388 43.6214 53.6202C43.7191 53.5016 43.7725 53.3527 43.7725 53.199V52.3385C43.777 52.2063 43.824 52.079 43.9067 51.9757C43.9894 51.8724 44.1032 51.7986 44.2313 51.7653C44.888 51.5561 45.5256 51.2912 46.1373 50.9734C46.2517 50.9064 46.3847 50.878 46.5165 50.8926C46.6483 50.9072 46.7719 50.9639 46.869 51.0543L47.481 51.6663C47.5897 51.7749 47.7328 51.8424 47.8857 51.8572C48.0387 51.872 48.192 51.8332 48.3195 51.7475C49.8152 50.7424 51.1013 49.4562 52.1062 47.9604C52.1921 47.8329 52.231 47.6795 52.2162 47.5265C52.2015 47.3735 52.134 47.2304 52.0254 47.1216L51.4133 46.5102C51.3226 46.4132 51.2657 46.2895 51.2513 46.1574C51.2368 46.0254 51.2655 45.8922 51.3331 45.7779C51.6504 45.1663 51.9151 44.5289 52.1243 43.8725ZM50.8614 43.4711C50.6753 44.0554 50.4398 44.6227 50.1575 45.1671C49.9601 45.5314 49.8846 45.9493 49.942 46.3597C49.9994 46.77 50.1867 47.1512 50.4764 47.4474L50.6945 47.6647C49.9438 48.6844 49.0434 49.5848 48.0238 50.3354L47.8057 50.1174C47.5098 49.8276 47.1289 49.6402 46.7187 49.5827C46.3085 49.5252 45.8907 49.6006 45.5265 49.7978C44.9821 50.0805 44.4146 50.3162 43.8301 50.5024C43.4341 50.6212 43.0865 50.8635 42.8378 51.1937C42.5891 51.524 42.4523 51.9251 42.4475 52.3385V52.6419C41.1959 52.8353 39.9221 52.8353 38.6705 52.6419V52.3385C38.6656 51.9251 38.5289 51.524 38.2802 51.1937C38.0315 50.8635 37.6839 50.6212 37.2879 50.5024C36.7034 50.3162 36.1359 50.0805 35.5915 49.7978C35.2273 49.6007 34.8095 49.5254 34.3994 49.5829C33.9892 49.6404 33.6082 49.8277 33.3123 50.1174L33.0942 50.3351C32.0747 49.5845 31.1743 48.6842 30.4235 47.6647L30.6416 47.447C30.9311 47.1509 31.1184 46.7699 31.176 46.3598C31.2336 45.9497 31.1586 45.5319 30.9618 45.1674C30.6785 44.6231 30.4426 44.0555 30.2566 43.4708C30.1377 43.0748 29.8954 42.7272 29.5652 42.4785C29.2349 42.2298 28.8339 42.0931 28.4205 42.0882H28.1171C27.923 40.8369 27.923 39.5631 28.1171 38.3118H28.4205C28.8339 38.3069 29.235 38.1701 29.5653 37.9214C29.8955 37.6726 30.1378 37.3249 30.2566 36.9289C30.4427 36.3442 30.6786 35.7766 30.9618 35.2322C31.1585 34.8678 31.2336 34.45 31.176 34.0399C31.1183 33.6297 30.9311 33.2488 30.6416 32.9526L30.4235 32.7352C31.1743 31.7158 32.0747 30.8155 33.0942 30.0649L33.3123 30.2826C33.6084 30.572 33.9893 30.7592 34.3994 30.8167C34.8095 30.8742 35.2272 30.799 35.5915 30.6022C36.1359 30.3195 36.7034 30.0838 37.2879 29.8976C37.6839 29.7787 38.0315 29.5365 38.2802 29.2063C38.5289 28.876 38.6656 28.4749 38.6705 28.0615V27.7581C39.9221 27.5646 41.1959 27.5646 42.4475 27.7581V28.0615C42.4523 28.4749 42.5891 28.876 42.8378 29.2063C43.0865 29.5365 43.4341 29.7787 43.8301 29.8976C44.4146 30.0838 44.9821 30.3195 45.5265 30.6022C45.8907 30.7992 46.3085 30.8744 46.7186 30.8169C47.1287 30.7594 47.5097 30.5722 47.8057 30.2826L48.0238 30.0649C49.0433 30.8155 49.9437 31.7158 50.6945 32.7352L50.4764 32.953C50.1867 33.2489 49.9994 33.6299 49.9419 34.0401C49.8844 34.4502 49.9597 34.868 50.1568 35.2322C50.4395 35.7767 50.6752 36.3443 50.8614 36.9289V36.9292C50.9803 37.3252 51.2225 37.6728 51.5528 37.9215C51.8831 38.1702 52.2841 38.3069 52.6975 38.3118H53.0009C53.195 39.5631 53.195 40.8369 53.0009 42.0882H52.6975C52.2841 42.0931 51.883 42.2299 51.5527 42.4786C51.2225 42.7274 50.9802 43.0751 50.8614 43.4711V43.4711Z" fill="white"/>
<path d="M57.9251 26.2875C57.9251 25.6323 57.7308 24.9919 57.3668 24.4472C57.0028 23.9024 56.4855 23.4779 55.8802 23.2271C55.2749 22.9764 54.6089 22.9108 53.9663 23.0386C53.3238 23.1665 52.7335 23.4819 52.2703 23.9452C51.807 24.4085 51.4915 24.9987 51.3637 25.6413C51.2359 26.2838 51.3015 26.9499 51.5522 27.5551C51.8029 28.1604 52.2275 28.6778 52.7722 29.0417C53.317 29.4057 53.9574 29.6 54.6126 29.6C55.4908 29.599 56.3327 29.2496 56.9537 28.6286C57.5747 28.0077 57.924 27.1657 57.9251 26.2875ZM52.6251 26.2875C52.6251 25.8944 52.7416 25.5101 52.96 25.1833C53.1784 24.8565 53.4888 24.6017 53.852 24.4513C54.2151 24.3009 54.6148 24.2615 55.0003 24.3382C55.3858 24.4149 55.74 24.6042 56.0179 24.8821C56.2959 25.1601 56.4852 25.5142 56.5619 25.8998C56.6385 26.2853 56.5992 26.6849 56.4488 27.0481C56.2983 27.4112 56.0436 27.7216 55.7167 27.94C55.3899 28.1584 55.0056 28.275 54.6126 28.275C54.0856 28.2744 53.5804 28.0648 53.2078 27.6922C52.8352 27.3196 52.6256 26.8144 52.6251 26.2875Z" fill="white"/>
<path d="M30.1001 54.1125C30.1001 53.4573 29.9058 52.8169 29.5418 52.2722C29.1779 51.7274 28.6605 51.3029 28.0552 51.0521C27.45 50.8014 26.7839 50.7358 26.1414 50.8636C25.4988 50.9915 24.9086 51.3069 24.4453 51.7702C23.982 52.2335 23.6666 52.8237 23.5387 53.4663C23.4109 54.1088 23.4765 54.7748 23.7272 55.3801C23.978 55.9854 24.4025 56.5028 24.9473 56.8667C25.492 57.2307 26.1324 57.425 26.7876 57.425C27.6658 57.424 28.5078 57.0746 29.1288 56.4536C29.7497 55.8326 30.0991 54.9907 30.1001 54.1125ZM24.8001 54.1125C24.8001 53.7194 24.9167 53.3351 25.1351 53.0083C25.3534 52.6815 25.6638 52.4267 26.027 52.2763C26.3902 52.1259 26.7898 52.0865 27.1753 52.1632C27.5609 52.2399 27.915 52.4292 28.193 52.7071C28.4709 52.9851 28.6602 53.3392 28.7369 53.7247C28.8136 54.1103 28.7742 54.5099 28.6238 54.8731C28.4734 55.2362 28.2186 55.5466 27.8918 55.765C27.565 55.9834 27.1807 56.1 26.7876 56.1C26.2607 56.0994 25.7555 55.8898 25.3829 55.5172C25.0103 55.1446 24.8007 54.6394 24.8001 54.1125Z" fill="white"/>
<path d="M24.0574 49.8056C21.9448 46.1423 21.0994 41.8844 21.6525 37.6919C22.2055 33.4994 24.1259 29.6063 27.1162 26.6161C30.1064 23.6259 33.9995 21.7055 38.192 21.1525C42.3846 20.5995 46.6424 21.4449 50.3057 23.5576L50.9695 22.4105C47.0536 20.1517 42.5018 19.2476 38.0198 19.8386C33.5378 20.4295 29.376 22.4825 26.1793 25.6792C22.9827 28.8758 20.9298 33.0377 20.3389 37.5197C19.748 42.0017 20.652 46.5535 22.911 50.4694L24.0574 49.8056Z" fill="white"/>
<path d="M57.3428 30.5944C59.4546 34.2564 60.3001 38.5125 59.7483 42.7037C59.1964 46.8948 57.2781 50.787 54.2903 53.7775C51.3025 56.7681 47.4121 58.69 43.2215 59.2457C39.0309 59.8015 34.774 58.9599 31.11 56.8515L30.4475 57.9992C34.3642 60.2536 38.9149 61.1535 43.3949 60.5596C47.8748 59.9657 52.0338 57.9111 55.2278 54.714C58.4218 51.517 60.4724 47.356 61.062 42.8755C61.6516 38.395 60.7474 33.8451 58.4892 29.9306L57.3428 30.5944Z" fill="white"/>
</g>
<defs>
<clipPath id="clip0_1_390">
<rect width="42.4" height="42.4" fill="white" transform="translate(19.5 19)"/>
</clipPath>
</defs>
</svg>
