<svg width="81" height="80" viewBox="0 0 81 80" fill="none" xmlns="http://www.w3.org/2000/svg">
<circle cx="40.5" cy="40" r="40" fill="#007AFF"/>
<g clip-path="url(#clip0_1_357)">
<path d="M40.0986 24.168C39.4126 24.168 38.8564 24.7242 38.8564 25.4102C38.8564 26.0962 39.4126 26.6524 40.0986 26.6524C44.2089 26.6524 47.553 29.9959 47.553 34.1055C47.553 34.7915 48.1092 35.3477 48.7952 35.3477C49.4812 35.3477 50.0374 34.7915 50.0374 34.1055C50.0374 28.626 45.5789 24.168 40.0986 24.168Z" fill="white"/>
<path d="M36.8978 19.534C31.2856 20.7067 26.7351 25.2137 25.5377 30.8607C24.5266 35.6292 25.7726 40.4166 28.956 43.9954C30.5121 45.7446 31.4045 48.0537 31.4045 50.3369V52.8213C31.4045 54.4742 32.4866 55.8785 33.9794 56.3648C34.4703 59.2653 36.9878 61.5993 40.0998 61.5993C43.211 61.5993 45.7291 59.2661 46.2202 56.3648C47.713 55.8785 48.7951 54.4742 48.7951 52.8212V50.3368C48.7951 48.0491 49.6905 45.7678 51.3161 43.9131C53.6956 41.1986 55.006 37.7155 55.006 34.1057C55.006 24.7011 46.3978 17.5493 36.8978 19.534ZM40.0998 59.115C38.503 59.115 37.103 58.0163 36.586 56.5396H43.6135C43.0966 58.0163 41.6966 59.115 40.0998 59.115ZM46.3107 52.8213C46.3107 53.5062 45.7535 54.0635 45.0685 54.0635H35.131C34.4461 54.0635 33.8889 53.5062 33.8889 52.8213V51.5791H46.3107V52.8213ZM49.4478 42.2757C47.7154 44.2522 46.6495 46.6355 46.379 49.0947H33.8208C33.5506 46.6342 32.4875 44.2274 30.8124 42.3442C28.1592 39.3616 27.1225 35.3638 27.9681 31.3761C28.9551 26.7209 32.7479 22.9392 37.4061 21.9659C45.358 20.3041 52.5217 26.2759 52.5217 34.1057C52.5217 37.1127 51.43 40.0143 49.4478 42.2757Z" fill="white"/>
<path d="M22.6265 34.1055H20.1421C19.4561 34.1055 18.8999 34.6617 18.8999 35.3477C18.8999 36.0337 19.4561 36.5899 20.1421 36.5899H22.6265C23.3125 36.5899 23.8687 36.0337 23.8687 35.3477C23.8687 34.6617 23.3125 34.1055 22.6265 34.1055Z" fill="white"/>
<path d="M23.1409 27.8944L21.3842 26.1377C20.8992 25.6526 20.1126 25.6526 19.6275 26.1377C19.1424 26.6228 19.1424 27.4093 19.6275 27.8944L21.3842 29.6511C21.8692 30.1362 22.6558 30.1363 23.1409 29.6511C23.626 29.166 23.626 28.3795 23.1409 27.8944Z" fill="white"/>
<path d="M23.1409 41.044C22.6558 40.5589 21.8692 40.5589 21.3842 41.044L19.6275 42.8007C19.1424 43.2858 19.1424 44.0723 19.6275 44.5574C20.1125 45.0425 20.8991 45.0426 21.3842 44.5574L23.1409 42.8007C23.626 42.3156 23.626 41.5291 23.1409 41.044Z" fill="white"/>
<path d="M60.0576 34.1055H57.5732C56.8872 34.1055 56.3311 34.6617 56.3311 35.3477C56.3311 36.0337 56.8872 36.5899 57.5732 36.5899H60.0576C60.7436 36.5899 61.2998 36.0337 61.2998 35.3477C61.2998 34.6617 60.7436 34.1055 60.0576 34.1055Z" fill="white"/>
<path d="M60.5721 26.1377C60.087 25.6526 59.3005 25.6526 58.8154 26.1377L57.0587 27.8944C56.5735 28.3795 56.5735 29.166 57.0587 29.6511C57.5437 30.1362 58.3302 30.1362 58.8154 29.6511L60.5721 27.8944C61.0572 27.4093 61.0572 26.6228 60.5721 26.1377Z" fill="white"/>
<path d="M60.5721 42.8007L58.8154 41.044C58.3303 40.5589 57.5438 40.5589 57.0587 41.044C56.5735 41.5291 56.5735 42.3156 57.0587 42.8007L58.8154 44.5574C59.3004 45.0424 60.087 45.0425 60.5721 44.5574C61.0572 44.0723 61.0572 43.2858 60.5721 42.8007Z" fill="white"/>
</g>
<defs>
<clipPath id="clip0_1_357">
<rect width="42.4" height="42.4" fill="white" transform="translate(18.8999 19.2)"/>
</clipPath>
</defs>
</svg>
