<svg width="191" height="58" viewBox="0 0 191 58" fill="none" xmlns="http://www.w3.org/2000/svg">
<rect x="0.705575" y="1.48255" width="189.094" height="55.0348" rx="6.35017" fill="black"/>
<path d="M96.1502 31.4711C92.8312 31.4711 90.126 33.9957 90.126 37.4727C90.126 40.9286 92.8312 43.4744 96.1502 43.4744C99.4706 43.4744 102.176 40.9286 102.176 37.4727C102.174 33.9957 99.4692 31.4711 96.1502 31.4711ZM96.1502 41.1121C94.3312 41.1121 92.7634 39.612 92.7634 37.4742C92.7634 35.3137 94.3326 33.8362 96.1502 33.8362C97.9692 33.8362 99.537 35.3137 99.537 37.4742C99.537 39.6106 97.9692 41.1121 96.1502 41.1121ZM83.0067 31.4711C79.6877 31.4711 76.9826 33.9957 76.9826 37.4727C76.9826 40.9286 79.6877 43.4744 83.0067 43.4744C86.3272 43.4744 89.0324 40.9286 89.0324 37.4727C89.0324 33.9957 86.3272 31.4711 83.0067 31.4711ZM83.0067 41.1121C81.1878 41.1121 79.62 39.612 79.62 37.4742C79.62 35.3137 81.1892 33.8362 83.0067 33.8362C84.8257 33.8362 86.3935 35.3137 86.3935 37.4742C86.3949 39.6106 84.8257 41.1121 83.0067 41.1121ZM67.374 33.3141V35.8598H73.4674C73.2853 37.2921 72.8084 38.3378 72.0802 39.0645C71.194 39.9507 69.8069 40.9286 67.374 40.9286C63.6232 40.9286 60.6908 37.9046 60.6908 34.1537C60.6908 30.4029 63.6232 27.3788 67.374 27.3788C69.3976 27.3788 70.8751 28.1747 71.9659 29.1978L73.7623 27.4014C72.2383 25.9465 70.2161 24.8331 67.374 24.8331C62.236 24.8331 57.9165 29.0157 57.9165 34.1537C57.9165 39.2917 62.236 43.4744 67.374 43.4744C70.1469 43.4744 72.2397 42.5642 73.8752 40.8595C75.5573 39.1774 76.0808 36.8123 76.0808 34.903C76.0808 34.3132 76.0357 33.7671 75.9439 33.3127H67.374V33.3141ZM131.31 35.2911C130.811 33.9505 129.287 31.4711 126.172 31.4711C123.081 31.4711 120.511 33.9039 120.511 37.4727C120.511 40.8369 123.058 43.4744 126.467 43.4744C129.218 43.4744 130.809 41.7923 131.47 40.8143L129.424 39.4498C128.742 40.4503 127.809 41.1093 126.467 41.1093C125.127 41.1093 124.171 40.4954 123.558 39.2903L131.583 35.9713L131.31 35.2911ZM123.126 37.2921C123.058 34.9722 124.922 33.791 126.264 33.791C127.31 33.791 128.196 34.3146 128.492 35.0639L123.126 37.2921ZM116.602 43.1117H119.238V25.4709H116.602V43.1117ZM112.281 32.8131H112.191C111.599 32.1075 110.462 31.4711 109.031 31.4711C106.03 31.4711 103.279 34.1086 103.279 37.4967C103.279 40.8609 106.03 43.4758 109.031 43.4758C110.463 43.4758 111.599 42.8393 112.191 42.1126H112.281V42.9762C112.281 45.2722 111.053 46.4999 109.076 46.4999C107.462 46.4999 106.461 45.3413 106.052 44.3634L103.756 45.3187C104.415 46.9091 106.165 48.865 109.076 48.865C112.168 48.865 114.783 47.046 114.783 42.6121V31.8366H112.282V32.8131H112.281ZM109.258 41.1121C107.439 41.1121 105.917 39.5881 105.917 37.4967C105.917 35.3814 107.439 33.8362 109.258 33.8362C111.053 33.8362 112.463 35.3814 112.463 37.4967C112.463 39.5881 111.053 41.1121 109.258 41.1121ZM143.664 25.4709H137.354V43.1117H139.986V36.4285H143.662C146.58 36.4285 149.451 34.316 149.451 30.9504C149.451 27.5848 146.582 25.4709 143.664 25.4709ZM143.731 33.9731H139.986V27.9263H143.731C145.7 27.9263 146.818 29.5562 146.818 30.9504C146.818 32.3164 145.7 33.9731 143.731 33.9731ZM160.005 31.4401C158.098 31.4401 156.124 32.2797 155.307 34.141L157.644 35.1161C158.143 34.141 159.075 33.8221 160.05 33.8221C161.412 33.8221 162.796 34.6392 162.819 36.0912V36.2733C162.342 36.0009 161.32 35.5931 160.072 35.5931C157.554 35.5931 154.988 36.9774 154.988 39.5641C154.988 41.9249 157.054 43.4447 159.368 43.4447C161.138 43.4447 162.114 42.6502 162.727 41.7189H162.817V43.0806H165.36V36.317C165.361 33.1871 163.022 31.4401 160.005 31.4401ZM159.686 41.1079C158.825 41.1079 157.621 40.6761 157.621 39.6092C157.621 38.2475 159.12 37.7253 160.414 37.7253C161.57 37.7253 162.116 37.9751 162.819 38.3152C162.614 39.9507 161.207 41.1079 159.686 41.1079ZM174.62 31.8253L171.602 39.4738H171.511L168.379 31.8253H165.542L170.24 42.5148L167.561 48.4614H170.308L177.548 31.8253H174.62ZM150.904 43.1117H153.536V25.4709H150.904V43.1117Z" fill="white"/>
<path d="M66.914 15.2313C66.914 16.4139 66.5641 17.3551 65.8627 18.0579C65.0668 18.8933 64.0282 19.311 62.7526 19.311C61.5305 19.311 60.4905 18.8876 59.6367 18.0409C58.7816 17.1928 58.354 16.1429 58.354 14.8898C58.354 13.6353 58.7816 12.5854 59.6367 11.7387C60.4905 10.8906 61.5305 10.4673 62.7526 10.4673C63.3594 10.4673 63.9393 10.5858 64.4897 10.8215C65.0414 11.0586 65.4831 11.3733 65.8133 11.767L65.0697 12.5121C64.5094 11.8418 63.7375 11.5073 62.7511 11.5073C61.8593 11.5073 61.0888 11.8206 60.4383 12.4471C59.7877 13.0737 59.4632 13.8879 59.4632 14.8884C59.4632 15.8889 59.7877 16.7032 60.4383 17.3297C61.0888 17.9563 61.8593 18.2695 62.7511 18.2695C63.6966 18.2695 64.4854 17.9549 65.1162 17.3241C65.5255 16.9134 65.7625 16.3419 65.826 15.6095H62.7511V14.5921H66.8534C66.8957 14.8136 66.914 15.0267 66.914 15.2313Z" fill="white"/>
<path d="M73.4196 11.6951H69.5643V14.3791H73.0414V15.3965H69.5643V18.0805H73.4196V19.122H68.4763V10.6551H73.4196V11.6951Z" fill="white"/>
<path d="M78.0071 19.122H76.9191V11.6951H74.554V10.6551H80.3721V11.6951H78.0071V19.122Z" fill="white"/>
<path d="M84.5816 19.122V10.6551H85.6695V19.122H84.5816Z" fill="white"/>
<path d="M90.4945 19.122H89.4065V11.6951H87.0414V10.6551H92.8596V11.6951H90.4945V19.122Z" fill="white"/>
<path d="M103.873 18.0283C103.041 18.8835 102.006 19.311 100.769 19.311C99.5312 19.311 98.4968 18.8835 97.6656 18.0283C96.8331 17.1731 96.4182 16.1261 96.4182 14.8885C96.4182 13.6509 96.8331 12.6038 97.6656 11.7487C98.4968 10.8935 99.5312 10.4645 100.769 10.4645C101.999 10.4645 103.032 10.8949 103.868 11.7543C104.703 12.6137 105.121 13.658 105.121 14.8885C105.121 16.1261 104.704 17.1731 103.873 18.0283ZM98.4686 17.3185C99.0951 17.9535 99.8614 18.2696 100.769 18.2696C101.676 18.2696 102.444 17.9521 103.069 17.3185C103.695 16.6835 104.01 15.8735 104.01 14.8885C104.01 13.9035 103.695 13.0935 103.069 12.4585C102.444 11.8235 101.676 11.5074 100.769 11.5074C99.8614 11.5074 99.0951 11.8249 98.4686 12.4585C97.8434 13.0935 97.5288 13.9035 97.5288 14.8885C97.5288 15.8735 97.8434 16.6835 98.4686 17.3185Z" fill="white"/>
<path d="M106.648 19.122V10.6551H107.971L112.086 17.2409H112.133L112.086 15.6096V10.6551H113.174V19.122H112.038L107.733 12.2158H107.686L107.733 13.8471V19.122H106.648Z" fill="white"/>
<path d="M66.914 15.2313C66.914 16.4139 66.5641 17.3551 65.8627 18.0579C65.0668 18.8933 64.0282 19.311 62.7526 19.311C61.5305 19.311 60.4905 18.8876 59.6367 18.0409C58.7816 17.1928 58.354 16.1429 58.354 14.8898C58.354 13.6353 58.7816 12.5854 59.6367 11.7387C60.4905 10.8906 61.5305 10.4673 62.7526 10.4673C63.3594 10.4673 63.9393 10.5858 64.4897 10.8215C65.0414 11.0586 65.4831 11.3733 65.8133 11.767L65.0697 12.5121C64.5094 11.8418 63.7375 11.5073 62.7511 11.5073C61.8593 11.5073 61.0888 11.8206 60.4383 12.4471C59.7877 13.0737 59.4632 13.8879 59.4632 14.8884C59.4632 15.8889 59.7877 16.7032 60.4383 17.3297C61.0888 17.9563 61.8593 18.2695 62.7511 18.2695C63.6966 18.2695 64.4854 17.9549 65.1162 17.3241C65.5255 16.9134 65.7625 16.3419 65.826 15.6095H62.7511V14.5921H66.8534C66.8957 14.8136 66.914 15.0267 66.914 15.2313Z" stroke="white" stroke-width="0.28223" stroke-miterlimit="10"/>
<path d="M73.4196 11.6951H69.5643V14.3791H73.0414V15.3965H69.5643V18.0805H73.4196V19.122H68.4763V10.6551H73.4196V11.6951Z" stroke="white" stroke-width="0.28223" stroke-miterlimit="10"/>
<path d="M78.0071 19.122H76.9191V11.6951H74.554V10.6551H80.3721V11.6951H78.0071V19.122Z" stroke="white" stroke-width="0.28223" stroke-miterlimit="10"/>
<path d="M84.5816 19.122V10.6551H85.6695V19.122H84.5816Z" stroke="white" stroke-width="0.28223" stroke-miterlimit="10"/>
<path d="M90.4945 19.122H89.4065V11.6951H87.0414V10.6551H92.8596V11.6951H90.4945V19.122Z" stroke="white" stroke-width="0.28223" stroke-miterlimit="10"/>
<path d="M103.873 18.0283C103.041 18.8835 102.006 19.311 100.769 19.311C99.5312 19.311 98.4968 18.8835 97.6656 18.0283C96.8331 17.1731 96.4182 16.1261 96.4182 14.8885C96.4182 13.6509 96.8331 12.6038 97.6656 11.7487C98.4968 10.8935 99.5312 10.4645 100.769 10.4645C101.999 10.4645 103.032 10.8949 103.868 11.7543C104.703 12.6137 105.121 13.658 105.121 14.8885C105.121 16.1261 104.704 17.1731 103.873 18.0283ZM98.4686 17.3185C99.0951 17.9535 99.8614 18.2696 100.769 18.2696C101.676 18.2696 102.444 17.9521 103.069 17.3185C103.695 16.6835 104.01 15.8735 104.01 14.8885C104.01 13.9035 103.695 13.0935 103.069 12.4585C102.444 11.8235 101.676 11.5074 100.769 11.5074C99.8614 11.5074 99.0951 11.8249 98.4686 12.4585C97.8434 13.0935 97.5288 13.9035 97.5288 14.8885C97.5288 15.8735 97.8434 16.6835 98.4686 17.3185Z" stroke="white" stroke-width="0.28223" stroke-miterlimit="10"/>
<path d="M106.648 19.122V10.6551H107.971L112.086 17.2409H112.133L112.086 15.6096V10.6551H113.174V19.122H112.038L107.733 12.2158H107.686L107.733 13.8471V19.122H106.648Z" stroke="white" stroke-width="0.28223" stroke-miterlimit="10"/>
<g filter="url(#filter0_ii_1_316)">
<path d="M14.7268 11.414C14.3162 11.8486 14.0735 12.5232 14.0735 13.3967V44.6056C14.0735 45.4806 14.3162 46.1537 14.7268 46.5883L14.8313 46.6899L32.314 29.2072V29.0011V28.7951L14.8313 11.311L14.7268 11.414Z" fill="url(#paint0_linear_1_316)"/>
<path d="M38.1406 35.0366L32.314 29.2071V29.0011V28.7951L38.142 22.967L38.2733 23.0418L45.178 26.9648C47.1494 28.0853 47.1494 29.9184 45.178 31.0402L38.2733 34.9632L38.1406 35.0366Z" fill="url(#paint1_linear_1_316)"/>
<g filter="url(#filter1_i_1_316)">
<path d="M38.2733 34.962L32.3126 29.0013L14.7268 46.5885C15.3759 47.2771 16.4498 47.3618 17.6592 46.676L38.2733 34.962Z" fill="url(#paint2_linear_1_316)"/>
</g>
<path d="M38.2733 23.0406L17.6592 11.328C16.4498 10.6408 15.3759 10.7269 14.7268 11.4155L32.314 29.0027L38.2733 23.0406Z" fill="url(#paint3_linear_1_316)"/>
</g>
<rect x="0.705575" y="1.48255" width="189.094" height="55.0348" rx="6.35017" stroke="#A6A6A6" stroke-width="1.41115"/>
<defs>
<filter id="filter0_ii_1_316" x="14.0735" y="10.8538" width="32.583" height="36.2959" filterUnits="userSpaceOnUse" color-interpolation-filters="sRGB">
<feFlood flood-opacity="0" result="BackgroundImageFix"/>
<feBlend mode="normal" in="SourceGraphic" in2="BackgroundImageFix" result="shape"/>
<feColorMatrix in="SourceAlpha" type="matrix" values="0 0 0 0 0 0 0 0 0 0 0 0 0 0 0 0 0 0 127 0" result="hardAlpha"/>
<feOffset dy="-0.211672"/>
<feComposite in2="hardAlpha" operator="arithmetic" k2="-1" k3="1"/>
<feColorMatrix type="matrix" values="0 0 0 0 0 0 0 0 0 0 0 0 0 0 0 0 0 0 0.12 0"/>
<feBlend mode="normal" in2="shape" result="effect1_innerShadow_1_316"/>
<feColorMatrix in="SourceAlpha" type="matrix" values="0 0 0 0 0 0 0 0 0 0 0 0 0 0 0 0 0 0 127 0" result="hardAlpha"/>
<feOffset dy="0.211672"/>
<feComposite in2="hardAlpha" operator="arithmetic" k2="-1" k3="1"/>
<feColorMatrix type="matrix" values="0 0 0 0 1 0 0 0 0 1 0 0 0 0 1 0 0 0 0.25 0"/>
<feBlend mode="normal" in2="effect1_innerShadow_1_316" result="effect2_innerShadow_1_316"/>
</filter>
<filter id="filter1_i_1_316" x="14.7268" y="29.0013" width="23.5464" height="18.1483" filterUnits="userSpaceOnUse" color-interpolation-filters="sRGB">
<feFlood flood-opacity="0" result="BackgroundImageFix"/>
<feBlend mode="normal" in="SourceGraphic" in2="BackgroundImageFix" result="shape"/>
<feColorMatrix in="SourceAlpha" type="matrix" values="0 0 0 0 0 0 0 0 0 0 0 0 0 0 0 0 0 0 127 0" result="hardAlpha"/>
<feOffset dy="-0.211672"/>
<feComposite in2="hardAlpha" operator="arithmetic" k2="-1" k3="1"/>
<feColorMatrix type="matrix" values="0 0 0 0 0 0 0 0 0 0 0 0 0 0 0 0 0 0 0.08 0"/>
<feBlend mode="normal" in2="shape" result="effect1_innerShadow_1_316"/>
</filter>
<linearGradient id="paint0_linear_1_316" x1="30.7643" y1="13.0664" x2="7.08237" y2="36.7484" gradientUnits="userSpaceOnUse">
<stop stop-color="#00A0FF"/>
<stop offset="0.0066" stop-color="#00A1FF"/>
<stop offset="0.2601" stop-color="#00BEFF"/>
<stop offset="0.5122" stop-color="#00D2FF"/>
<stop offset="0.7604" stop-color="#00DFFF"/>
<stop offset="1" stop-color="#00E3FF"/>
</linearGradient>
<linearGradient id="paint1_linear_1_316" x1="47.7442" y1="29.0011" x2="13.6001" y2="29.0011" gradientUnits="userSpaceOnUse">
<stop stop-color="#FFE000"/>
<stop offset="0.4087" stop-color="#FFBD00"/>
<stop offset="0.7754" stop-color="#FFA500"/>
<stop offset="1" stop-color="#FF9C00"/>
</linearGradient>
<linearGradient id="paint2_linear_1_316" x1="35.0362" y1="32.2384" x2="2.92057" y2="64.354" gradientUnits="userSpaceOnUse">
<stop stop-color="#FF3A44"/>
<stop offset="1" stop-color="#C31162"/>
</linearGradient>
<linearGradient id="paint3_linear_1_316" x1="10.2978" y1="1.02634" x2="24.6383" y2="15.3669" gradientUnits="userSpaceOnUse">
<stop stop-color="#32A071"/>
<stop offset="0.0685" stop-color="#2DA771"/>
<stop offset="0.4762" stop-color="#15CF74"/>
<stop offset="0.8009" stop-color="#06E775"/>
<stop offset="1" stop-color="#00F076"/>
</linearGradient>
</defs>
</svg>
